<svg xmlns="http://www.w3.org/2000/svg" viewBox="0 0 1200 720" role="img" aria-labelledby="title desc">
  <title id="title">East Nashville event calendar scene</title>
  <desc id="desc">A stylized event board with flyers, calendar cards, and confetti shapes.</desc>
  <rect width="1200" height="720" fill="#f8f2df"/>
  <rect x="86" y="84" width="1028" height="552" rx="18" fill="#1b8a5a" stroke="#1f1b18" stroke-width="10"/>
  <g stroke="#1f1b18" stroke-width="8">
    <rect x="148" y="148" width="248" height="184" rx="10" fill="#f5d35f"/>
    <rect x="468" y="124" width="254" height="218" rx="10" fill="#fffaf0"/>
    <rect x="794" y="164" width="234" height="168" rx="10" fill="#ef4d37"/>
    <rect x="168" y="402" width="310" height="158" rx="10" fill="#fffaf0"/>
    <rect x="564" y="396" width="414" height="174" rx="10" fill="#f5d35f"/>
  </g>
  <g stroke="#1f1b18" stroke-width="12" stroke-linecap="round">
    <path d="M190 204h152M190 250h108M512 188h166M512 238h128M836 222h146M836 268h92"/>
    <path d="M216 456h206M216 506h146M612 454h312M612 506h220"/>
  </g>
  <g fill="#2f7dd1" stroke="#1f1b18" stroke-width="6">
    <circle cx="146" cy="100" r="22"/>
    <circle cx="1054" cy="120" r="22"/>
    <circle cx="434" cy="382" r="18"/>
    <circle cx="1012" cy="390" r="18"/>
  </g>
  <path d="M92 660c152-70 296-72 432-6s286 62 450-12" fill="none" stroke="#ef4d37" stroke-width="18" stroke-linecap="round"/>
  <g stroke="#1f1b18" stroke-width="7" stroke-linecap="round">
    <path d="M264 92l40-56M722 96l52-48M1014 608l66 42M116 410l-62 32"/>
  </g>
</svg>
