<svg xmlns="http://www.w3.org/2000/svg" viewBox="0 0 1200 720" role="img" aria-labelledby="title desc">
  <title id="title">Tiny bluejay emergency</title>
  <desc id="desc">A playful 3D printer scene producing tiny blue jays with Gallatin retail shelves in the background.</desc>
  <rect width="1200" height="720" fill="#f8f2df"/>
  <rect width="1200" height="320" fill="#6fa4dd" opacity=".28"/>
  <rect x="76" y="188" width="294" height="330" rx="20" fill="#403830" stroke="#1f1b18" stroke-width="8"/>
  <rect x="118" y="240" width="210" height="156" rx="12" fill="#fffaf0" stroke="#1f1b18" stroke-width="8"/>
  <path d="M146 326h154M184 286h76" stroke="#2f7dd1" stroke-width="18" stroke-linecap="round"/>
  <path d="M196 426h58l36 68H160z" fill="#f5d35f" stroke="#1f1b18" stroke-width="8"/>
  <rect x="496" y="144" width="560" height="422" rx="22" fill="#fffaf0" stroke="#1f1b18" stroke-width="8"/>
  <path d="M542 210h468M542 296h468M542 382h468" stroke="#1f1b18" stroke-width="8"/>
  <g>
    <path d="M634 258c42-54 120-46 150 18 46-12 88 10 104 54-88 16-178 10-268-18z" fill="#2f7dd1" stroke="#1f1b18" stroke-width="8"/>
    <path d="M640 318c62 58 142 58 238 12-50 72-138 96-244 64z" fill="#fffaf0" stroke="#1f1b18" stroke-width="8"/>
    <path d="M788 276l44-34 8 54z" fill="#1f1b18"/>
    <circle cx="768" cy="266" r="10" fill="#fffaf0"/>
  </g>
  <g fill="#2f7dd1" stroke="#1f1b18" stroke-width="6">
    <path d="M620 452c24-32 72-28 90 10 28-8 54 8 64 34-54 8-108 4-162-12z"/>
    <path d="M836 452c24-32 72-28 90 10 28-8 54 8 64 34-54 8-108 4-162-12z"/>
  </g>
  <path d="M0 566h1200v154H0z" fill="#1f1b18"/>
  <path d="M460 644h220M720 644h220" stroke="#f5d35f" stroke-width="16" stroke-dasharray="42 32"/>
</svg>
