<svg width="520" height="520" viewBox="0 0 520 520" xmlns="http://www.w3.org/2000/svg" role="img" aria-labelledby="title desc">
  <title id="title">East Meets Nash civic seal</title>
  <desc id="desc">A simplified parody civic seal for East Nashville with an EMN monogram, skyline, river, and local color.</desc>
  <circle cx="260" cy="260" r="246" fill="#1f1b18"/>
  <circle cx="260" cy="260" r="222" fill="#f5d35f" stroke="#ef4d37" stroke-width="14"/>
  <circle cx="260" cy="260" r="176" fill="#f8f2df" stroke="#1f1b18" stroke-width="8"/>
  <path d="M108 324 C166 282 218 354 278 312 C326 278 372 292 418 330 L418 374 L108 374 Z" fill="#2f7dd1"/>
  <path d="M118 344 C176 314 222 374 286 336 C332 308 376 320 408 350 L408 374 L118 374 Z" fill="#1b8a5a"/>
  <g fill="#1f1b18">
    <rect x="152" y="204" width="34" height="92" rx="3"/>
    <rect x="198" y="174" width="42" height="122" rx="3"/>
    <rect x="254" y="218" width="46" height="78" rx="3"/>
    <rect x="316" y="190" width="36" height="106" rx="3"/>
  </g>
  <g fill="#ef4d37" stroke="#1f1b18" stroke-width="5" stroke-linejoin="round">
    <polygon points="222,136 238,170 206,170"/>
    <polygon points="260,126 278,172 242,172"/>
    <polygon points="298,136 314,170 282,170"/>
  </g>
  <circle cx="260" cy="260" r="116" fill="#f8f2df" stroke="#1f1b18" stroke-width="6"/>
  <text x="260" y="292" text-anchor="middle" font-family="Georgia, serif" font-size="116" font-weight="900" fill="#1f1b18" letter-spacing="0">EMN</text>
  <path d="M174 326 C222 304 298 348 346 326" fill="none" stroke="#ef4d37" stroke-width="12" stroke-linecap="round"/>
  <g fill="#1f1b18">
    <circle cx="116" cy="202" r="8"/>
    <circle cx="404" cy="202" r="8"/>
    <circle cx="116" cy="322" r="8"/>
    <circle cx="404" cy="322" r="8"/>
  </g>
</svg>
